<?xml version="1.0" encoding="UTF-8" standalone="no"?>
<!DOCTYPE svg PUBLIC "-//W3C//DTD SVG 1.1//EN" "http://www.w3.org/Graphics/SVG/1.1/DTD/svg11.dtd">
<svg xmlns="http://www.w3.org/2000/svg" version="1.1" viewBox="0 0 942 644" width="942.0pt" height="644.0pt">
<path d="M 0.00 0.00 L 942.00 0.00 L 942.00 644.00 L 0.00 644.00 L 0.00 0.00 Z" fill="lightSteelBlue" />
<path d="M 424.96 34.46 C 445.30 34.37 465.68 34.47 486.03 34.41 C 489.44 34.29 492.18 35.69 495.50 36.27 C 502.14 37.44 508.67 38.93 515.40 39.48 C 522.58 41.01 529.81 42.44 536.91 44.28 C 540.68 45.54 544.63 45.46 548.41 46.69 C 556.70 49.12 564.72 52.02 573.22 53.68 C 577.71 56.18 583.28 57.34 588.18 58.90 C 594.49 60.95 601.15 62.97 607.06 65.99 C 607.95 66.04 608.85 66.09 609.74 66.14 C 610.29 66.56 610.84 66.99 611.39 67.41 C 615.00 68.13 618.08 69.87 621.51 71.12 C 624.72 72.39 628.04 73.34 631.23 74.66 C 640.18 78.82 649.60 81.91 658.86 85.28 C 659.39 85.66 659.92 86.03 660.46 86.41 C 664.33 86.99 668.10 88.47 671.56 90.26 C 675.41 91.51 679.15 93.22 683.10 94.10 C 688.06 96.37 693.26 97.96 698.34 99.90 C 698.72 101.13 698.90 102.42 699.14 103.68 C 694.85 105.54 690.35 105.92 685.87 107.07 C 681.77 107.92 678.17 109.97 674.11 110.94 C 671.39 111.59 669.03 112.51 666.61 113.90 C 662.52 115.63 658.64 117.88 654.52 119.48 C 652.96 120.18 651.86 119.83 650.30 119.36 C 648.62 119.03 646.94 118.75 645.30 118.27 C 644.10 118.08 642.90 117.91 641.70 117.72 C 639.27 117.04 636.73 116.96 634.30 116.28 C 633.10 116.09 631.90 115.92 630.70 115.73 C 629.05 115.25 627.36 114.96 625.67 114.66 C 624.02 114.23 622.34 113.97 620.66 113.69 C 618.56 113.14 616.40 112.86 614.31 112.25 C 613.11 112.08 611.90 111.92 610.71 111.72 C 608.27 111.05 605.73 110.95 603.30 110.28 C 602.10 110.09 600.90 109.91 599.70 109.73 C 598.05 109.25 596.36 108.96 594.66 108.69 C 592.56 108.14 590.40 107.86 588.31 107.25 C 587.11 107.08 585.90 106.92 584.71 106.72 C 582.27 106.05 579.73 105.95 577.29 105.28 C 576.09 105.09 574.89 104.92 573.69 104.75 C 571.59 104.14 569.41 103.86 567.31 103.25 C 566.11 103.08 564.90 102.91 563.70 102.73 C 562.05 102.24 560.36 101.97 558.66 101.69 C 556.52 101.14 554.36 100.86 552.27 100.17 C 550.56 100.02 548.85 99.94 547.14 99.87 C 548.28 99.08 549.40 98.27 550.51 97.44 C 551.82 95.80 553.18 94.22 554.47 92.56 C 551.34 92.00 548.25 91.27 545.12 90.71 C 538.33 89.72 531.80 87.62 525.00 86.58 C 520.08 85.83 515.36 84.26 510.41 83.68 C 500.19 83.13 490.23 79.98 479.99 79.39 C 475.29 78.86 470.69 77.89 465.94 77.81 C 456.75 76.60 447.29 77.37 438.00 77.16 C 431.24 77.21 424.66 76.68 418.02 78.30 C 408.53 79.40 399.10 79.77 389.76 82.07 C 384.56 83.57 379.25 83.25 374.15 85.16 C 366.71 86.95 359.34 89.24 351.86 90.82 C 349.59 91.53 347.33 92.27 345.07 93.01 C 345.72 94.11 346.36 95.20 346.97 96.31 C 349.66 101.01 351.17 106.17 354.13 110.74 C 358.94 119.65 363.91 128.44 368.88 137.26 C 400.41 137.23 431.95 137.29 463.48 137.23 C 463.57 136.24 463.60 135.26 463.58 134.29 C 461.49 126.16 457.30 118.13 456.51 109.76 C 458.70 107.87 461.67 109.19 464.24 109.35 C 485.40 110.86 506.65 113.70 527.82 114.54 C 543.25 116.05 558.66 118.69 574.23 120.45 C 584.26 120.70 593.91 122.35 603.88 123.43 C 613.25 124.98 622.70 125.59 632.06 127.11 C 635.51 127.76 638.92 127.54 642.28 128.64 C 640.30 131.59 638.70 134.76 636.63 137.65 C 635.98 139.19 635.25 140.67 634.48 142.15 C 632.49 143.78 631.44 145.93 630.27 148.15 C 628.84 152.92 626.45 157.12 625.80 162.14 C 625.37 162.65 624.93 163.15 624.50 163.66 C 624.36 165.08 624.22 166.50 624.04 167.91 C 623.45 169.68 623.05 171.65 622.12 173.27 C 620.90 173.77 619.32 173.56 618.02 173.64 C 593.35 173.57 568.67 173.63 544.00 173.61 C 538.96 173.58 533.84 173.76 528.82 173.39 C 528.41 167.27 527.53 161.16 526.82 155.06 C 522.49 157.35 518.35 159.94 513.91 162.01 C 505.72 165.80 498.42 170.66 490.03 174.20 C 486.74 174.66 483.32 174.35 480.00 174.41 C 421.01 174.42 361.95 174.39 302.96 174.43 C 300.98 174.45 298.06 174.04 296.78 172.34 C 282.31 152.92 266.63 134.39 251.69 115.33 C 248.84 111.42 245.25 108.51 241.81 105.16 C 240.35 103.31 238.65 101.68 237.14 99.86 C 237.37 99.23 237.65 98.63 238.00 98.07 C 242.39 92.42 247.55 87.65 252.82 82.84 C 258.42 77.92 264.64 74.84 270.89 70.82 C 276.07 67.36 281.97 64.93 287.72 62.62 C 288.24 62.24 288.76 61.86 289.28 61.49 C 299.13 58.10 308.80 53.74 318.92 51.33 C 326.72 49.48 335.12 45.87 343.18 45.35 C 346.80 44.87 350.32 43.80 353.92 43.20 C 372.69 39.32 391.91 37.37 410.96 35.30 C 415.75 35.36 420.21 35.02 424.96 34.46 Z" fill="#000000" />
<path d="M 740.27 142.99 C 748.12 144.01 756.00 146.34 763.75 147.97 C 771.77 148.77 779.57 152.47 787.43 154.70 C 798.09 158.16 808.60 162.55 818.59 167.62 C 821.87 169.73 825.44 171.22 828.85 173.08 C 835.01 176.71 840.73 181.07 846.62 185.13 C 852.77 190.07 858.67 195.30 863.94 201.19 C 867.34 204.16 869.88 207.80 872.77 211.23 C 875.75 215.35 877.94 219.97 880.76 224.21 C 882.05 226.00 881.60 227.87 881.49 229.94 C 880.56 236.42 880.46 243.64 878.21 249.91 C 876.82 253.85 872.50 255.95 868.52 255.99 C 862.37 247.24 854.59 240.04 847.68 232.01 C 846.77 231.40 845.85 230.79 844.94 230.17 C 840.91 226.34 836.89 222.76 831.94 220.17 C 828.52 218.36 825.61 215.92 822.50 213.65 C 820.84 212.89 819.20 212.10 817.57 211.29 C 816.52 210.76 815.47 210.23 814.41 209.72 C 813.76 209.39 813.10 209.05 812.45 208.72 C 811.78 208.39 811.11 208.05 810.44 207.72 C 809.77 207.39 809.11 207.05 808.44 206.72 C 807.11 206.05 805.77 205.38 804.43 204.73 C 803.47 204.24 802.51 203.76 801.54 203.28 C 800.15 202.83 798.76 202.35 797.39 201.83 C 796.76 201.44 796.12 201.06 795.47 200.69 C 793.78 200.10 792.11 199.45 790.45 198.76 C 788.15 197.56 785.72 196.71 783.35 195.68 C 782.41 195.34 781.47 195.02 780.52 194.71 C 779.15 194.20 777.78 193.73 776.42 193.21 C 775.81 193.06 775.20 192.92 774.59 192.77 C 773.57 192.40 772.55 192.04 771.52 191.70 C 770.16 191.21 768.79 190.74 767.44 190.23 C 766.83 190.06 766.22 189.89 765.61 189.72 C 764.28 189.31 762.94 188.97 761.60 188.62 C 759.97 188.22 758.33 187.95 756.68 187.65 C 753.83 186.77 750.88 187.04 747.80 186.84 C 745.59 185.76 744.51 185.84 742.26 186.72 C 740.29 186.96 738.32 187.14 736.39 187.61 C 735.78 187.83 735.17 188.05 734.57 188.28 C 733.55 188.63 732.54 188.96 731.52 189.29 C 729.81 189.91 728.10 190.53 726.41 191.20 C 725.46 191.72 724.50 192.22 723.55 192.73 C 722.13 193.56 720.76 194.48 719.33 195.29 C 716.35 198.20 712.99 201.04 710.62 204.49 C 710.18 205.47 709.72 206.45 709.24 207.42 C 708.66 208.76 708.09 210.10 707.56 211.46 C 707.21 213.07 706.94 214.70 706.67 216.32 C 705.62 219.39 705.98 223.03 706.16 226.23 C 707.15 228.54 706.98 230.76 707.24 233.23 C 708.00 235.23 708.01 237.27 708.13 239.37 C 708.90 240.46 709.66 241.55 710.35 242.69 C 713.14 245.66 715.77 248.83 719.34 250.83 C 720.44 251.28 721.52 251.76 722.61 252.23 C 723.24 252.60 723.88 252.97 724.52 253.33 C 726.44 254.22 728.40 254.98 730.35 255.76 C 731.73 256.32 733.12 256.84 734.53 257.30 C 735.20 257.64 735.87 257.97 736.55 258.29 C 738.28 258.88 739.95 259.61 741.64 260.27 C 742.93 260.77 744.23 261.24 745.52 261.71 C 746.47 262.01 747.41 262.34 748.35 262.69 C 750.07 263.45 751.82 264.13 753.56 264.84 C 754.19 264.94 754.82 265.03 755.44 265.13 C 758.08 266.30 760.59 267.62 763.02 269.16 C 773.79 276.05 784.83 282.57 795.65 289.35 C 801.66 293.35 808.02 296.44 813.62 301.08 C 820.85 306.23 827.46 311.00 832.04 318.86 C 833.37 321.44 832.85 324.74 830.81 326.79 C 826.66 330.68 821.85 333.32 816.74 335.73 C 812.83 337.54 809.11 339.84 805.08 341.35 C 801.55 340.09 798.38 337.95 794.81 336.73 C 785.36 333.19 775.85 329.67 766.14 326.92 C 760.72 325.30 755.37 322.92 749.79 322.02 C 744.11 320.90 738.96 318.20 733.25 316.99 C 728.58 316.10 724.17 314.40 719.56 313.29 C 714.01 311.98 708.91 309.57 703.28 308.57 C 697.72 305.93 692.54 302.78 687.13 299.87 C 684.17 297.41 681.76 294.42 678.83 291.94 C 677.64 290.91 676.47 289.85 675.33 288.77 C 674.30 287.76 673.32 286.73 672.36 285.65 C 671.26 284.47 670.16 283.30 669.02 282.16 C 667.47 280.42 665.93 278.85 665.28 276.54 C 664.41 274.91 663.49 273.34 662.46 271.81 C 662.38 270.95 662.30 270.10 662.22 269.24 C 660.76 266.81 660.10 264.64 659.83 261.81 C 659.38 261.31 658.93 260.81 658.48 260.30 C 658.40 259.56 658.32 258.83 658.23 258.09 C 657.87 256.52 657.61 254.94 657.35 253.36 C 655.74 251.02 656.11 248.68 656.10 246.00 C 656.37 240.13 654.77 234.52 655.28 228.63 C 654.70 228.30 654.12 227.98 653.54 227.65 C 653.63 224.93 653.70 222.24 654.22 219.57 C 653.76 219.13 653.30 218.70 652.83 218.26 C 652.92 214.12 652.66 209.94 652.95 205.81 C 653.17 205.08 653.63 204.41 654.34 203.80 C 654.11 203.36 653.89 202.92 653.66 202.47 C 655.29 199.89 655.85 196.94 657.21 194.24 C 658.81 190.85 660.29 187.41 661.82 183.99 C 662.84 182.14 663.95 180.43 665.21 178.74 C 665.61 177.77 666.02 176.80 666.43 175.83 C 670.45 171.45 673.74 165.85 678.48 162.26 C 679.63 161.16 680.78 160.06 681.87 158.90 C 685.00 156.65 688.38 154.84 691.66 152.77 C 698.83 148.43 706.29 146.84 714.28 144.81 C 722.81 142.89 731.55 142.22 740.27 142.99 Z" fill="#000000" />
<path d="M 156.22 144.50 C 165.15 142.66 173.94 143.66 182.87 144.84 C 186.99 145.41 190.82 146.94 194.91 147.79 C 199.81 149.57 203.17 153.18 207.61 155.66 C 207.98 156.15 208.35 156.63 208.71 157.11 C 211.11 158.84 213.19 160.90 215.44 162.80 C 218.65 165.78 221.91 168.71 225.14 171.67 C 226.27 172.70 227.39 173.72 228.49 174.77 C 229.80 176.05 231.02 177.41 232.24 178.77 C 233.28 180.14 234.33 181.49 235.47 182.78 C 237.40 186.00 239.57 189.06 241.79 192.09 C 245.01 196.00 246.80 200.65 249.79 204.69 C 250.69 206.23 251.38 207.86 252.03 209.52 C 253.16 211.65 254.25 213.79 255.20 216.01 C 256.20 218.35 256.22 220.69 257.90 222.71 L 257.11 224.25 L 258.55 224.28 C 258.87 226.40 259.29 228.48 259.80 230.55 C 261.41 233.30 261.53 236.59 263.18 239.36 C 263.61 242.16 263.78 244.77 265.60 247.10 C 266.03 248.96 266.45 250.83 266.95 252.68 C 269.94 257.91 268.93 264.21 269.09 270.00 C 268.97 278.15 269.71 287.69 267.12 295.46 C 266.45 300.24 262.78 303.51 259.15 306.30 C 255.54 308.39 252.03 311.21 248.01 312.40 C 247.51 312.70 247.01 313.00 246.51 313.31 C 243.45 314.45 240.53 315.89 237.55 317.23 C 235.11 318.31 232.74 318.34 230.16 318.90 C 226.02 319.59 222.44 321.58 218.18 321.70 C 207.36 324.78 196.47 327.18 185.84 330.86 C 180.00 332.37 174.70 335.15 169.04 337.20 C 165.02 339.92 160.33 341.42 156.64 344.55 C 153.81 346.76 150.61 348.15 148.04 350.72 C 146.82 350.75 145.60 350.78 144.38 350.81 C 142.42 348.78 140.44 347.17 139.23 344.56 C 135.69 336.64 133.33 328.25 131.01 319.81 C 130.02 315.60 129.37 311.49 127.51 307.52 C 127.51 305.79 127.45 304.06 127.43 302.32 C 126.75 301.91 126.06 301.50 125.38 301.09 L 126.91 299.55 C 126.43 299.46 125.94 299.37 125.46 299.28 C 124.62 297.09 123.53 295.20 122.17 293.31 C 121.81 291.74 121.49 290.42 120.50 289.11 C 120.07 287.74 119.64 286.36 119.21 284.98 C 116.61 280.06 112.59 276.15 110.25 271.10 C 109.31 268.14 107.27 265.81 106.44 262.77 C 102.59 258.10 99.45 252.82 96.10 247.77 C 91.16 241.49 86.47 234.15 80.57 228.43 C 78.19 225.98 75.61 223.86 72.44 222.51 C 69.76 221.29 66.67 221.19 64.14 219.78 C 61.53 218.35 58.95 216.84 56.42 215.27 C 52.75 212.27 49.11 210.62 48.73 205.29 C 49.44 204.40 50.14 203.51 50.83 202.61 C 51.40 202.22 51.96 201.84 52.52 201.46 C 53.02 200.51 53.52 199.55 54.03 198.60 C 58.15 196.62 61.50 193.04 64.58 189.72 C 68.14 187.20 71.16 184.18 74.37 181.26 C 77.34 178.87 80.87 177.21 83.89 174.85 C 89.26 170.52 95.67 167.28 101.48 163.49 C 105.97 160.99 110.76 159.01 115.23 156.49 C 120.91 154.14 126.70 152.08 132.38 149.75 C 140.01 147.24 148.31 145.95 156.22 144.50 Z" fill="#000000" />
<path d="M 181.31 186.52 C 182.79 187.41 184.17 188.45 185.66 189.32 C 187.40 190.96 189.06 192.60 191.00 194.01 C 195.48 197.11 198.18 202.44 201.05 206.93 C 206.95 216.76 212.40 226.83 218.16 236.72 C 220.06 240.75 221.26 245.11 222.89 249.26 C 224.03 252.89 226.04 255.86 224.28 259.70 C 224.16 260.34 224.05 260.97 223.93 261.61 C 221.88 263.66 219.92 265.73 217.54 267.42 C 216.84 267.69 216.13 267.95 215.42 268.22 C 214.78 268.59 214.13 268.96 213.49 269.33 C 211.57 270.22 209.60 270.97 207.64 271.76 C 205.94 272.42 204.26 273.10 202.53 273.68 C 201.85 274.07 201.16 274.47 200.49 274.88 C 199.86 274.99 199.22 275.10 198.59 275.21 C 197.58 275.59 196.56 275.96 195.53 276.32 C 194.21 276.78 192.88 277.20 191.55 277.66 C 190.88 278.03 190.20 278.39 189.53 278.77 C 188.50 279.05 187.49 279.35 186.47 279.66 C 185.47 279.99 184.48 280.32 183.49 280.66 C 182.47 281.02 181.45 281.39 180.44 281.77 C 179.81 281.91 179.17 282.06 178.54 282.20 C 177.18 282.75 175.81 283.25 174.45 283.80 C 173.83 283.95 173.21 284.09 172.59 284.24 C 171.55 284.62 170.50 284.97 169.44 285.30 C 169.07 284.36 168.69 283.42 168.30 282.48 C 167.99 281.53 167.65 280.60 167.30 279.66 C 166.71 278.29 166.16 276.91 165.67 275.51 C 165.18 274.14 164.73 272.77 164.21 271.41 C 164.08 270.80 163.95 270.18 163.82 269.57 C 163.14 267.84 162.46 266.10 161.75 264.38 C 161.06 262.70 160.43 260.99 159.68 259.33 C 159.33 258.39 159.02 257.44 158.74 256.48 C 158.40 255.80 158.07 255.12 157.74 254.44 C 157.25 253.48 156.76 252.53 156.26 251.57 C 155.29 249.56 154.28 247.56 153.28 245.56 C 152.94 244.90 152.60 244.25 152.26 243.60 C 151.77 242.52 151.26 241.45 150.77 240.38 C 149.79 238.69 148.70 237.06 147.70 235.38 C 147.23 234.79 146.77 234.20 146.30 233.61 C 145.47 232.20 144.54 230.84 143.70 229.44 C 142.61 228.14 141.56 226.83 140.60 225.43 C 139.57 224.12 138.54 222.82 137.61 221.44 C 136.56 220.11 135.54 218.77 134.62 217.35 C 133.55 216.12 132.47 214.89 131.40 213.64 C 130.42 212.07 129.19 210.71 127.93 209.36 C 130.34 208.44 132.43 207.13 134.54 205.66 C 135.81 204.80 137.09 203.99 138.43 203.24 C 139.83 202.43 141.18 201.56 142.57 200.75 C 144.56 199.63 146.45 198.37 148.40 197.21 C 149.09 196.92 149.77 196.63 150.44 196.34 C 152.70 194.83 154.99 193.46 157.38 192.17 C 158.76 191.66 160.14 191.16 161.54 190.72 C 162.21 190.36 162.89 190.01 163.57 189.66 C 164.53 189.30 165.49 188.94 166.45 188.59 C 168.07 188.21 169.70 187.94 171.33 187.66 C 173.63 187.06 175.91 186.98 178.26 186.63 C 179.30 186.35 180.32 186.32 181.31 186.52 Z" fill="#ffffff" />
<path d="M 279.89 195.34 C 286.22 196.92 292.58 198.03 298.96 199.33 C 302.82 200.10 307.05 199.40 310.98 199.88 C 320.17 201.61 329.65 202.34 339.00 202.13 C 430.35 202.13 521.70 202.13 613.04 202.13 C 618.10 202.14 621.00 205.13 624.16 208.59 C 626.64 214.66 627.00 220.96 628.22 227.30 C 628.47 231.70 628.08 235.80 628.81 240.13 C 629.42 243.98 628.92 247.81 629.49 251.66 C 630.10 255.45 629.88 259.54 629.86 263.39 C 630.42 263.69 630.98 263.99 631.55 264.29 C 631.23 268.97 631.94 273.42 632.51 278.03 C 634.10 279.90 634.30 282.77 634.91 285.13 C 636.66 288.14 638.48 291.17 639.86 294.37 C 640.91 295.69 641.93 297.03 642.86 298.44 C 644.67 300.93 646.74 303.16 648.39 305.76 C 651.75 311.38 656.68 315.86 660.51 321.19 C 661.33 322.31 662.10 323.46 662.86 324.63 C 669.45 325.42 675.56 327.51 681.95 329.17 C 688.43 329.67 693.48 332.54 699.45 334.54 C 704.10 336.23 708.96 336.49 713.44 338.72 C 716.97 340.37 721.48 339.84 724.02 342.76 C 725.72 342.81 727.42 342.84 729.11 342.87 C 729.67 343.31 730.22 343.74 730.78 344.18 C 735.24 344.71 739.26 346.86 743.30 348.68 C 745.87 349.65 748.69 350.06 751.37 350.67 C 751.68 351.17 751.99 351.68 752.31 352.18 C 760.22 354.72 768.12 357.43 775.81 360.57 C 780.92 363.07 786.52 364.48 791.68 366.93 C 794.47 368.55 797.43 369.70 800.43 370.86 C 807.69 375.16 815.27 378.44 822.04 383.90 C 827.97 388.60 834.07 391.84 837.47 398.98 C 837.05 406.86 830.63 411.95 825.79 417.42 C 822.86 421.19 819.13 424.34 815.89 427.89 C 811.03 432.75 806.41 437.91 801.30 442.50 C 799.45 442.51 797.61 442.51 795.76 442.53 C 795.14 441.50 794.51 440.48 793.88 439.46 C 793.83 436.54 793.38 434.63 791.81 432.18 C 789.99 426.79 785.58 422.16 781.44 418.41 C 779.97 416.47 778.69 414.39 777.20 412.48 C 771.59 408.66 766.64 404.29 760.33 401.57 C 752.42 397.03 743.38 394.26 734.53 392.25 C 727.32 390.01 719.62 389.00 712.11 388.52 C 706.73 387.71 701.39 387.76 695.96 387.98 C 687.72 388.82 679.21 389.52 671.04 391.59 C 667.76 392.53 664.48 393.47 661.15 394.22 C 655.04 395.51 649.19 398.76 643.35 401.27 C 638.58 403.70 634.17 406.85 629.51 409.50 C 628.43 410.67 627.32 411.81 626.24 412.97 C 625.50 413.47 624.76 413.98 624.02 414.48 C 622.75 415.99 621.35 417.37 619.88 418.68 C 616.37 422.16 614.51 426.47 612.09 430.68 C 611.44 432.81 610.67 434.88 609.58 436.83 C 609.07 440.16 608.63 443.53 607.88 446.81 C 607.77 453.02 607.25 459.34 605.81 465.39 C 605.31 467.96 605.37 470.61 604.86 473.19 C 604.73 474.08 604.60 474.97 604.47 475.86 C 597.99 475.14 591.51 474.88 585.02 474.24 C 581.45 474.09 577.95 474.33 574.41 473.69 C 570.16 473.01 566.08 473.68 561.86 473.04 C 555.41 471.90 549.26 473.19 542.86 472.10 C 539.60 471.60 536.34 471.75 533.00 471.75 C 520.33 471.82 507.64 471.65 494.98 471.82 C 487.39 473.13 479.86 472.19 472.25 472.73 C 465.77 474.03 459.35 472.73 452.89 473.78 C 446.98 474.71 441.35 473.61 435.43 474.61 C 430.95 475.22 426.47 474.54 421.95 475.23 C 417.13 476.06 411.94 475.62 407.00 475.73 C 403.71 475.69 400.22 476.00 397.08 475.12 C 393.64 474.27 390.19 473.59 386.67 473.24 C 385.75 472.70 384.84 472.15 383.93 471.60 C 382.29 461.03 378.99 450.76 377.14 440.23 C 376.13 438.31 375.47 436.27 374.79 434.22 C 373.68 432.61 372.63 430.97 371.57 429.33 C 369.14 424.88 365.46 422.25 362.12 418.58 C 355.98 412.93 348.27 408.81 340.71 405.37 C 336.64 403.83 333.37 401.56 328.94 401.13 C 319.94 397.84 310.52 396.17 301.02 395.06 C 286.75 393.12 271.65 394.73 257.60 397.64 C 248.69 400.21 239.82 402.17 231.53 406.53 C 225.25 409.33 219.49 412.95 214.12 417.23 C 211.39 419.63 209.36 422.67 206.52 424.98 L 206.51 425.97 C 204.78 427.28 203.44 430.24 201.05 429.82 C 184.05 429.86 167.00 429.80 150.00 429.84 C 146.04 429.76 142.44 430.36 138.71 428.67 C 140.19 426.20 141.36 423.79 141.97 420.95 C 142.99 418.63 143.93 416.30 145.13 414.06 C 146.78 409.53 149.57 406.03 151.96 401.90 C 153.73 399.03 155.65 396.95 158.48 395.10 C 158.78 394.64 159.08 394.17 159.38 393.70 C 163.62 391.30 168.14 388.51 172.86 387.20 C 175.18 386.75 176.75 388.25 178.64 389.30 C 180.56 389.61 182.46 390.00 184.36 390.41 C 184.24 382.76 184.26 375.44 185.26 367.84 C 185.70 367.28 186.14 366.71 186.58 366.15 C 186.90 364.30 187.27 362.45 187.66 360.62 C 189.13 358.06 190.70 355.77 192.54 353.47 C 195.32 351.39 198.04 349.47 201.32 348.26 C 208.77 345.46 216.20 343.12 224.20 342.64 C 232.45 341.37 240.67 339.80 248.95 338.73 C 249.45 338.28 249.95 337.84 250.46 337.40 C 252.50 337.29 254.84 337.52 256.71 336.68 C 267.57 332.22 278.52 328.77 288.29 322.05 C 290.96 319.24 293.62 316.80 294.82 312.97 L 295.76 312.64 C 296.33 309.86 296.58 307.14 298.13 304.75 C 298.21 299.78 299.34 294.97 299.17 290.00 C 299.01 284.45 299.53 278.71 298.67 273.24 C 298.13 269.67 298.40 265.96 298.24 262.29 C 295.78 259.37 296.94 254.45 295.87 250.83 C 295.42 250.26 294.97 249.69 294.52 249.12 C 294.29 247.71 294.03 246.31 293.73 244.91 C 293.64 244.03 293.55 243.16 293.47 242.28 C 292.06 240.18 291.01 237.92 289.93 235.65 C 289.42 233.31 289.04 231.30 287.12 229.64 C 287.37 228.91 287.62 228.18 287.88 227.45 C 285.03 222.27 284.06 216.90 279.71 212.60 C 278.90 210.92 278.04 209.26 277.19 207.60 C 275.40 203.47 272.50 199.67 271.18 195.39 C 274.22 193.28 276.68 194.78 279.89 195.34 Z" fill="#000000" />
<path d="M 318.67 216.95 C 318.86 219.95 319.31 222.84 319.97 225.78 C 322.05 229.75 323.11 234.02 324.89 238.11 C 326.29 241.42 327.73 244.56 328.35 248.12 C 329.96 256.97 331.38 265.94 331.73 274.93 C 333.11 284.27 333.40 293.82 334.60 303.19 C 334.99 304.77 334.17 305.59 333.45 306.89 C 333.67 308.77 334.07 310.10 334.99 311.75 C 335.63 312.90 336.27 314.05 336.92 315.19 C 337.00 315.78 337.08 316.36 337.17 316.95 C 338.43 318.00 339.62 319.13 340.77 320.29 C 342.24 321.71 343.73 323.10 345.29 324.43 C 348.64 325.40 351.65 326.95 355.06 327.74 C 359.87 328.86 364.74 329.67 369.55 330.83 C 363.67 330.98 357.87 331.85 352.00 331.80 C 348.36 331.83 345.37 332.95 341.77 332.49 C 339.27 331.53 336.92 329.86 334.65 328.44 C 332.36 325.91 329.24 324.51 326.91 322.05 C 325.29 320.40 324.11 318.20 322.94 316.22 C 322.76 314.08 323.11 312.68 321.31 311.16 C 321.16 305.77 321.48 300.35 321.17 294.96 C 319.88 286.67 320.68 278.06 320.52 269.68 C 319.96 269.14 319.40 268.60 318.84 268.06 C 319.05 261.80 318.81 255.62 317.34 249.50 C 317.34 248.33 317.33 247.15 317.33 245.98 C 316.84 245.48 316.36 244.97 315.88 244.47 C 315.53 242.40 315.10 240.36 314.69 238.30 C 313.48 236.11 312.90 233.74 312.22 231.35 C 310.90 229.31 310.46 227.04 309.96 224.70 C 309.59 224.36 309.23 224.02 308.86 223.67 C 308.37 220.86 307.48 218.80 305.85 216.47 C 309.55 214.62 314.69 216.71 318.67 216.95 Z" fill="#ffffff" />
<path d="M 329.32 217.91 C 422.35 217.80 516.22 217.92 609.33 217.85 C 608.21 221.67 608.46 226.03 608.65 229.98 C 609.83 237.08 609.30 244.55 609.26 251.77 C 607.42 253.68 607.68 255.59 607.70 258.05 C 607.59 260.07 608.09 260.79 609.26 262.33 C 609.45 266.56 609.29 270.79 609.37 275.03 C 609.62 282.09 611.28 289.09 613.44 295.80 C 613.85 296.29 614.26 296.78 614.68 297.26 C 615.10 298.51 615.54 299.75 616.00 300.99 C 617.38 304.17 618.80 307.05 620.93 309.80 C 623.43 314.42 626.26 318.58 629.57 322.66 C 629.82 323.27 630.08 323.88 630.34 324.49 C 631.52 325.87 632.59 327.33 633.62 328.83 C 634.72 330.41 635.77 332.03 636.68 333.74 C 637.58 334.61 638.45 335.51 639.32 336.40 C 638.49 340.75 638.24 345.24 637.72 349.64 C 637.30 350.13 636.88 350.63 636.45 351.12 C 636.10 353.89 635.46 356.51 634.35 359.08 C 634.50 359.73 634.64 360.37 634.79 361.02 L 633.36 361.11 C 632.98 362.79 632.55 364.46 632.11 366.12 C 627.76 363.51 623.46 360.93 619.53 357.69 C 612.07 352.82 604.35 348.30 596.77 343.61 C 596.07 342.88 595.32 342.20 594.54 341.56 C 586.35 336.00 577.14 331.53 569.47 325.30 C 565.91 322.74 562.02 321.35 558.95 318.09 C 554.65 316.47 550.39 314.04 547.07 310.84 C 543.98 308.65 540.69 306.84 537.45 304.90 C 542.72 301.57 547.85 297.90 553.48 295.46 C 557.44 293.34 561.07 290.66 565.08 288.61 C 565.09 286.64 565.10 284.67 565.12 282.70 C 562.39 281.28 559.58 280.58 556.55 281.55 C 554.19 282.53 551.94 283.72 549.58 284.68 C 546.76 286.71 543.67 288.06 540.59 289.62 C 535.52 292.72 530.20 295.34 525.00 298.22 C 521.71 299.63 519.06 301.89 515.64 302.87 C 510.34 306.66 504.26 308.84 498.90 312.48 C 491.12 315.67 484.33 320.80 476.50 323.76 C 477.76 325.45 479.13 327.05 480.52 328.62 C 484.64 328.62 488.56 328.91 492.60 327.87 C 493.12 327.42 493.65 326.96 494.18 326.51 C 498.61 324.96 502.18 322.36 506.47 320.44 C 510.33 318.82 514.00 316.82 517.79 315.04 C 521.56 319.04 526.75 320.71 530.71 324.39 C 537.64 328.43 543.68 333.62 550.63 337.63 C 551.23 338.19 551.82 338.75 552.42 339.31 C 555.70 341.39 559.11 343.37 562.16 345.78 C 565.22 348.14 568.70 349.79 571.67 352.30 C 574.64 354.80 578.14 356.42 581.19 358.80 C 584.81 361.75 588.81 363.74 592.63 366.43 C 597.30 370.17 602.52 373.03 607.24 376.72 C 612.08 379.41 616.08 383.11 620.74 386.05 C 618.17 389.69 616.24 393.68 613.50 397.22 C 613.37 397.65 613.24 398.08 613.11 398.50 C 610.26 402.05 608.54 406.26 605.85 409.94 C 604.04 412.55 602.27 415.16 600.78 417.97 C 597.35 424.40 592.16 430.01 589.15 436.64 C 585.85 441.41 582.56 446.29 579.47 451.20 C 566.52 451.21 553.57 451.31 540.62 451.14 C 541.87 450.34 543.14 449.55 544.42 448.78 C 544.56 436.19 544.34 423.58 544.52 411.00 C 545.86 401.81 545.03 392.35 545.25 383.00 C 545.10 377.52 545.89 372.68 544.18 367.43 C 542.55 364.93 542.12 361.62 541.14 358.76 C 538.67 353.99 534.79 350.79 531.18 346.97 C 530.26 346.49 529.35 346.01 528.43 345.53 C 528.10 345.01 527.78 344.49 527.45 343.97 C 521.97 341.18 517.88 335.96 512.30 333.55 C 505.79 333.49 499.48 332.59 492.99 332.45 C 489.61 332.05 486.45 330.93 483.00 330.94 C 469.34 330.94 454.11 330.33 440.69 333.48 C 438.67 332.16 436.65 330.77 434.77 329.24 C 431.89 326.85 429.89 323.72 427.27 320.95 C 427.31 319.93 427.35 318.91 427.39 317.88 C 426.70 317.31 426.02 316.73 425.33 316.15 C 425.90 314.80 426.47 313.46 427.10 312.14 C 427.31 310.11 427.51 308.08 427.95 306.07 C 428.02 305.03 428.09 303.99 428.14 302.95 C 428.62 302.45 429.10 301.95 429.57 301.45 C 430.74 296.45 431.07 289.68 428.35 285.16 C 427.95 283.23 427.54 281.31 427.18 279.37 C 426.87 279.03 426.56 278.68 426.25 278.33 C 424.67 275.81 422.91 273.28 420.81 271.17 C 414.95 266.54 406.93 264.45 399.84 262.49 C 397.30 262.01 394.32 261.08 391.76 261.69 C 387.85 262.47 383.95 263.48 380.12 264.58 C 377.27 265.38 375.64 267.60 373.58 269.58 C 371.72 277.89 373.19 285.66 373.71 293.95 C 374.44 299.92 377.36 304.98 378.45 310.83 C 378.86 311.35 379.27 311.87 379.68 312.39 C 380.27 316.10 381.09 319.79 381.56 323.52 C 382.06 324.08 382.57 324.63 383.08 325.18 C 383.07 326.37 383.07 327.56 383.06 328.76 C 380.04 328.64 377.13 328.10 374.18 327.47 C 366.58 326.03 359.27 324.58 351.91 321.97 C 347.73 319.60 343.60 317.37 342.98 312.10 C 342.67 311.44 342.39 310.76 342.13 310.07 C 340.58 302.00 341.22 294.15 341.11 286.00 C 341.01 281.95 341.63 278.17 340.15 274.42 C 340.23 271.78 340.28 269.15 340.36 266.51 C 339.80 266.01 339.23 265.51 338.67 265.02 C 338.97 257.27 337.74 249.45 336.94 241.74 C 335.37 233.64 332.06 225.69 329.32 217.91 Z" fill="#ffffff" />
<path d="M 617.94 222.69 C 620.22 222.39 620.72 222.66 621.13 224.90 C 623.17 238.85 623.54 253.05 625.86 266.93 C 626.02 270.19 625.90 273.47 625.90 276.73 C 626.41 277.28 626.91 277.84 627.42 278.40 C 627.64 280.24 627.93 282.05 628.29 283.87 C 628.75 284.35 629.21 284.84 629.67 285.32 C 630.10 286.58 630.55 287.82 631.02 289.07 C 632.66 291.41 633.45 294.04 634.52 296.65 C 635.10 297.11 635.68 297.57 636.26 298.03 C 636.29 298.71 636.31 299.39 636.33 300.08 C 638.09 302.62 639.41 305.41 641.10 308.00 C 642.73 310.59 644.76 312.92 646.23 315.58 C 648.47 319.06 650.86 322.43 653.22 325.83 C 652.04 326.35 650.87 326.87 649.70 327.40 C 645.87 324.51 643.61 320.62 641.26 316.55 C 640.73 316.22 640.20 315.89 639.66 315.56 C 638.94 314.58 638.21 313.62 637.47 312.66 C 636.42 309.31 634.86 306.82 632.51 304.22 C 632.12 302.81 631.72 301.41 631.32 300.00 C 629.97 298.31 628.74 296.54 627.42 294.84 C 627.77 294.64 628.11 294.44 628.46 294.25 C 626.88 291.81 626.31 289.06 624.51 286.79 C 624.48 286.15 624.45 285.50 624.43 284.86 C 623.72 283.45 623.02 282.05 622.23 280.68 C 620.29 273.50 622.00 266.42 620.71 259.19 C 619.88 249.16 618.78 239.12 617.72 229.12 C 617.49 226.97 616.74 224.67 617.94 222.69 Z" fill="#ffffff" />
<path d="M 553.10 319.66 C 556.82 323.53 561.91 324.72 565.88 328.17 C 569.57 331.25 573.95 333.22 577.63 336.30 C 581.12 339.07 585.12 340.56 588.49 343.51 C 591.69 346.28 595.67 348.27 599.27 350.49 C 599.64 351.06 600.01 351.63 600.38 352.20 C 606.58 355.00 611.29 359.53 617.05 362.99 C 621.74 365.76 625.70 369.43 630.54 371.98 C 628.41 373.82 626.22 375.59 624.00 377.32 C 621.37 375.39 618.86 373.35 616.01 371.73 C 615.67 371.23 615.32 370.73 614.97 370.23 C 609.37 367.30 604.68 362.68 599.45 359.15 C 593.04 354.39 586.50 349.76 580.24 344.83 C 576.79 342.59 573.76 339.83 570.18 337.78 C 569.81 337.26 569.43 336.73 569.06 336.21 C 565.14 334.36 562.23 331.21 558.43 329.17 C 558.06 328.66 557.69 328.14 557.31 327.63 C 553.98 325.57 550.85 323.22 547.79 320.76 C 549.55 320.34 551.32 319.97 553.10 319.66 Z" fill="#ffffff" />
<path d="M 272.88 342.68 C 273.29 343.42 273.69 344.16 274.09 344.89 C 254.04 352.99 232.87 359.81 214.77 370.88 C 209.35 374.05 204.96 378.27 200.20 382.28 C 198.35 384.65 197.19 386.55 193.86 386.71 C 193.64 379.70 194.10 372.40 195.54 365.54 C 196.67 360.35 200.74 357.29 205.50 355.57 C 216.45 351.95 228.42 350.64 239.85 349.54 C 250.86 347.26 261.86 344.90 272.88 342.68 Z" fill="#ffffff" />
<path d="M 760.32 365.23 C 765.82 366.98 771.11 369.57 776.55 371.56 C 784.21 374.79 792.25 377.42 799.54 381.33 C 806.64 384.98 813.85 388.02 820.27 392.76 C 822.71 394.59 824.15 397.06 825.59 399.68 C 825.57 403.38 824.78 406.62 822.76 409.73 C 817.67 417.90 810.50 424.90 804.12 432.08 C 803.33 433.16 802.18 433.85 800.67 434.14 C 801.08 432.39 801.51 430.65 801.93 428.91 C 803.13 423.14 805.32 418.03 804.87 412.00 C 805.12 407.72 804.34 403.76 801.65 400.33 C 797.86 395.83 793.51 391.74 788.73 388.30 C 782.61 383.73 776.45 379.21 770.05 375.03 C 765.89 372.18 761.81 370.03 758.30 366.44 C 758.96 366.02 759.64 365.62 760.32 365.23 Z" fill="#ffffff" />
<path d="M 178.75 393.29 C 188.30 395.51 197.71 398.39 207.12 401.15 C 212.69 401.86 218.18 403.74 223.53 405.41 C 219.82 407.51 216.21 409.79 212.49 411.89 C 212.16 412.38 211.83 412.88 211.50 413.37 C 207.61 415.78 204.38 418.85 201.38 422.28 C 200.57 423.22 199.79 424.17 199.00 425.13 C 192.00 425.15 185.00 425.14 178.00 425.16 C 174.30 425.24 170.70 424.39 167.01 424.42 C 164.30 424.40 161.66 424.49 159.01 423.83 C 167.02 422.76 175.80 424.32 183.86 422.92 C 187.38 422.47 191.00 423.02 194.49 422.51 C 199.10 416.87 202.70 411.01 209.09 407.05 C 208.86 406.07 208.63 405.09 208.39 404.12 C 203.29 402.50 198.09 400.81 193.25 398.54 C 188.22 397.58 183.74 395.43 178.91 393.91 L 178.75 393.29 Z" fill="#ffffff" />
<path d="M 278.14 418.13 C 283.31 418.83 288.54 419.17 293.71 419.87 C 311.55 423.33 329.28 430.97 343.17 442.82 C 345.99 445.37 348.63 448.09 351.56 450.52 C 361.58 461.33 369.37 473.93 373.32 488.21 C 374.50 493.59 376.19 498.60 375.89 504.20 C 376.16 504.71 376.44 505.22 376.71 505.73 C 377.14 521.19 374.45 536.56 367.42 550.42 C 363.18 559.61 356.93 566.81 350.40 574.39 C 337.27 587.04 321.25 596.24 303.73 601.31 C 294.61 603.58 285.40 605.11 276.00 605.45 C 258.51 605.93 241.26 601.98 225.31 594.90 C 215.01 589.80 205.35 584.04 197.51 575.48 C 183.29 562.44 173.60 544.69 170.64 525.58 C 169.69 518.55 168.63 512.00 169.75 504.90 C 170.49 497.27 171.86 489.75 174.56 482.55 C 178.06 472.17 184.27 462.64 191.27 454.29 C 196.69 448.59 202.05 442.98 208.56 438.49 C 221.54 428.65 237.18 422.98 253.02 419.75 C 261.28 419.05 269.89 417.27 278.14 418.13 Z" fill="#000000" />
<path d="M 706.98 418.15 C 715.43 417.13 724.34 419.34 733.02 419.73 C 737.28 421.02 741.72 421.70 745.94 423.10 C 752.48 425.50 759.49 427.75 765.44 431.38 C 773.08 435.37 780.39 440.40 786.42 446.59 C 802.88 461.11 813.68 482.20 815.44 504.13 C 816.76 513.04 815.23 521.24 813.90 530.01 C 811.88 539.24 808.22 548.17 803.53 556.35 C 798.51 564.17 792.41 571.92 785.60 578.24 C 783.19 579.96 780.92 581.89 778.59 583.73 C 753.18 602.85 719.08 609.77 688.14 602.78 C 668.69 598.31 649.32 589.21 635.62 574.38 C 621.88 561.54 613.03 544.30 609.81 525.82 C 609.38 522.82 609.41 519.88 608.68 516.93 C 608.15 507.02 609.51 496.65 612.31 487.13 C 615.62 475.29 621.85 464.86 629.56 455.37 C 632.62 451.87 636.09 448.71 639.34 445.38 C 643.05 441.65 647.37 438.97 651.46 435.76 C 655.03 433.47 658.81 431.53 662.51 429.45 C 671.30 425.24 680.76 422.33 690.24 420.11 C 695.76 419.15 701.43 418.91 706.98 418.15 Z" fill="#000000" />
<path d="M 289.07 444.90 C 298.08 446.91 306.46 450.66 314.14 455.77 C 316.58 457.54 318.93 459.41 321.48 461.02 C 317.42 464.85 313.42 468.58 309.98 473.00 C 305.17 478.17 299.99 483.01 295.06 488.06 C 291.30 491.97 287.49 494.98 284.65 499.42 C 282.63 498.18 280.61 496.95 278.53 495.82 C 278.88 494.39 279.22 492.96 279.53 491.52 C 282.74 475.98 285.99 460.47 289.07 444.90 Z" fill="#ffffff" />
<path d="M 728.25 444.82 C 734.35 446.44 740.25 448.24 745.79 451.34 C 751.26 453.89 755.75 457.68 760.70 461.04 C 756.51 465.07 752.30 469.03 748.67 473.59 C 743.98 478.58 738.97 483.28 734.18 488.18 C 730.49 492.02 726.72 495.02 723.82 499.46 C 721.88 498.21 719.93 496.99 717.91 495.88 C 721.04 479.88 724.65 463.99 727.65 447.96 C 727.86 446.92 728.06 445.87 728.25 444.82 Z" fill="#ffffff" />
<path d="M 257.09 445.56 C 258.46 449.15 258.85 453.15 259.74 456.89 C 261.79 466.30 263.47 475.79 265.67 485.16 C 266.36 488.66 267.13 492.18 267.67 495.71 C 265.71 496.77 263.79 497.88 261.85 498.98 C 254.94 491.95 248.69 484.26 241.75 477.24 C 237.02 471.46 231.12 466.15 226.68 460.03 C 229.24 457.71 232.40 455.99 235.28 454.10 C 241.88 450.24 249.40 446.32 257.09 445.56 Z" fill="#ffffff" />
<path d="M 697.05 446.22 C 697.45 451.63 699.17 456.74 700.14 462.13 C 702.09 473.38 705.03 484.47 706.86 495.74 C 705.25 496.64 703.66 497.58 702.10 498.58 C 701.61 498.60 701.12 498.63 700.63 498.66 C 696.74 494.74 693.52 490.30 689.48 486.50 C 685.68 481.64 681.03 477.66 677.19 472.84 C 673.11 468.89 669.76 464.35 665.68 460.41 C 671.62 455.21 678.93 451.33 686.14 448.18 C 689.40 447.08 693.62 445.18 697.05 446.22 Z" fill="#ffffff" />
<path d="M 465.00 454.35 C 468.73 454.18 472.30 455.12 476.01 455.19 C 518.38 455.22 560.71 455.04 603.08 455.15 L 603.08 456.76 C 580.73 456.82 558.36 456.77 536.01 456.78 C 532.64 456.82 529.38 457.63 526.01 457.55 C 495.34 457.53 464.67 457.52 434.00 457.55 C 428.69 457.50 423.33 457.83 418.15 457.13 C 411.92 456.43 405.63 457.14 399.41 456.58 C 406.05 455.44 413.16 456.56 419.88 456.09 C 425.38 455.64 430.64 456.29 436.05 455.45 C 439.10 455.06 442.11 455.31 445.16 454.96 C 451.63 453.92 458.42 454.53 465.00 454.35 Z" fill="#ffffff" />
<path d="M 396.14 460.17 C 399.22 460.75 402.30 460.73 405.41 460.68 C 404.64 461.42 403.86 462.17 403.09 462.92 C 403.91 463.77 404.73 464.62 405.56 465.48 C 422.54 465.47 439.53 465.32 456.51 465.55 C 455.63 466.00 454.74 466.45 453.86 466.89 L 455.00 469.35 C 446.92 471.21 438.57 469.39 430.19 470.68 C 424.42 470.88 418.77 471.96 413.00 471.78 C 407.31 471.69 401.80 472.16 396.20 470.85 C 393.37 470.15 389.69 469.70 387.37 467.81 C 386.85 465.53 386.55 463.19 386.06 460.89 C 389.48 460.28 392.65 459.45 396.14 460.17 Z" fill="#ffffff" />
<path d="M 602.03 463.21 C 602.48 464.57 601.40 466.50 601.26 467.86 C 595.52 466.80 589.67 466.26 583.87 465.59 C 579.87 465.49 576.10 464.96 572.19 464.12 C 582.17 463.40 592.01 462.72 602.03 463.21 Z" fill="#ffffff" />
<path d="M 779.31 487.70 C 781.72 495.71 783.89 503.53 783.50 512.00 C 783.86 518.69 781.69 524.75 780.99 531.27 C 779.74 531.55 778.67 531.96 777.39 531.54 C 765.09 527.53 752.73 523.61 740.38 519.77 C 735.88 518.08 730.65 517.11 726.63 514.53 C 727.15 513.72 727.67 512.92 728.19 512.11 C 728.12 510.92 728.06 509.73 727.99 508.55 C 745.12 501.73 762.25 494.69 779.31 487.70 Z" fill="#ffffff" />
<path d="M 340.05 487.65 C 341.03 491.12 342.09 494.57 343.04 498.05 C 343.37 500.37 343.56 502.71 343.92 505.03 C 344.87 512.07 343.91 519.47 342.53 526.42 C 342.07 528.23 341.88 530.34 340.90 531.95 C 338.08 531.84 335.19 530.53 332.48 529.68 C 326.65 527.62 320.65 526.17 314.84 524.06 C 305.94 520.97 296.40 518.88 287.84 514.90 C 288.49 512.78 288.80 510.66 289.03 508.46 C 297.99 504.96 306.83 501.16 315.81 497.68 C 323.79 494.10 332.09 491.28 340.05 487.65 Z" fill="#ffffff" />
<path d="M 205.40 492.17 C 222.62 497.52 240.01 502.52 257.15 508.12 C 257.12 510.91 257.18 513.56 258.00 516.25 C 257.65 516.62 257.30 517.00 256.94 517.38 C 250.79 519.57 244.75 522.10 238.76 524.68 C 231.82 527.51 224.79 530.13 217.93 533.14 C 214.55 534.54 211.22 535.97 207.75 536.98 C 205.42 531.07 203.89 525.48 202.98 519.17 C 201.71 510.03 202.87 500.99 205.40 492.17 Z" fill="#ffffff" />
<path d="M 644.55 492.15 C 662.10 497.46 678.86 502.65 696.31 507.91 C 696.34 510.89 696.40 513.77 697.33 516.64 C 687.32 520.88 677.22 524.97 667.13 529.03 C 660.40 531.54 653.86 534.90 647.03 536.97 C 642.24 525.33 640.46 512.56 642.77 500.12 C 643.36 497.47 643.78 494.75 644.55 492.15 Z" fill="#ffffff" />
<path d="M 265.06 524.83 C 266.19 525.43 267.27 526.11 268.36 526.76 C 267.27 531.08 266.57 535.48 265.66 539.84 C 264.07 546.38 263.26 553.07 261.55 559.58 C 260.06 565.65 259.32 571.84 257.77 577.90 C 246.77 575.06 236.60 570.32 227.70 563.22 C 230.66 560.34 233.62 557.45 236.50 554.49 C 245.24 543.95 255.89 535.02 265.06 524.83 Z" fill="#ffffff" />
<path d="M 281.98 524.64 C 287.41 528.06 290.22 533.04 294.65 537.35 C 298.72 541.02 302.07 545.24 305.79 549.22 C 310.73 553.74 314.73 559.03 319.38 563.83 C 318.90 564.49 318.42 565.16 317.94 565.82 C 317.14 565.85 316.35 565.88 315.56 565.92 C 307.77 571.58 298.30 575.46 289.00 577.84 C 285.45 561.99 282.59 545.98 278.89 530.17 C 278.73 528.83 278.62 527.50 278.61 526.15 C 279.72 525.62 280.85 525.12 281.98 524.64 Z" fill="#ffffff" />
<path d="M 704.27 524.65 C 705.39 525.42 706.51 526.18 707.65 526.93 C 706.29 532.55 705.14 538.22 704.03 543.89 C 702.98 550.28 701.38 556.53 700.09 562.87 C 699.18 567.89 698.15 572.87 697.02 577.84 C 686.03 575.12 675.78 570.30 666.94 563.20 C 671.24 558.89 675.55 555.08 679.27 550.36 C 687.31 541.55 696.55 533.74 704.27 524.65 Z" fill="#ffffff" />
<path d="M 721.06 524.50 C 724.57 526.83 727.36 529.80 730.00 533.06 C 733.56 537.47 738.02 540.84 741.52 545.33 C 744.92 549.60 749.20 552.82 752.59 557.14 C 754.47 559.59 756.84 561.56 758.60 564.08 C 757.12 565.87 754.47 566.20 752.54 567.54 C 744.93 572.32 736.92 575.60 728.24 577.91 C 726.44 569.19 724.47 560.50 722.77 551.76 C 721.90 545.79 720.00 540.08 719.12 534.12 C 718.61 531.65 718.08 529.18 717.64 526.69 C 718.76 525.92 719.90 525.20 721.06 524.50 Z" fill="#ffffff" />
</svg>